<?xml version="1.0" encoding="UTF-8"?>
<svg xmlns="http://www.w3.org/2000/svg" xmlns:xlink="http://www.w3.org/1999/xlink" width="10pt" height="10pt" viewBox="0 0 10 10" version="1.1">
<g id="surface1">
<path style=" stroke:none;fill-rule:nonzero;fill:rgb(0%,0%,0%);fill-opacity:1;" d="M 0.722656 8.8125 L 2.335938 8.8125 L 2.335938 7.285156 L 0.722656 7.285156 Z M 2.695312 8.8125 L 4.496094 8.8125 L 4.496094 7.285156 L 2.695312 7.285156 Z M 0.722656 6.945312 L 2.335938 6.945312 L 2.335938 5.253906 L 0.722656 5.253906 Z M 2.695312 6.945312 L 4.496094 6.945312 L 4.496094 5.253906 L 2.695312 5.253906 Z M 0.722656 4.917969 L 2.335938 4.917969 L 2.335938 3.386719 L 0.722656 3.386719 Z M 4.851562 8.8125 L 6.652344 8.8125 L 6.652344 7.285156 L 4.851562 7.285156 Z M 2.695312 4.917969 L 4.496094 4.917969 L 4.496094 3.386719 L 2.695312 3.386719 Z M 7.011719 8.8125 L 8.628906 8.8125 L 8.628906 7.285156 L 7.011719 7.285156 Z M 4.851562 6.945312 L 6.652344 6.945312 L 6.652344 5.253906 L 4.851562 5.253906 Z M 2.878906 2.375 L 2.878906 0.847656 C 2.878906 0.753906 2.792969 0.675781 2.695312 0.675781 L 2.335938 0.675781 C 2.242188 0.675781 2.15625 0.753906 2.15625 0.847656 L 2.15625 2.375 C 2.15625 2.460938 2.242188 2.542969 2.335938 2.542969 L 2.695312 2.542969 C 2.792969 2.542969 2.878906 2.460938 2.878906 2.375 Z M 7.011719 6.945312 L 8.628906 6.945312 L 8.628906 5.253906 L 7.011719 5.253906 Z M 4.851562 4.917969 L 6.652344 4.917969 L 6.652344 3.386719 L 4.851562 3.386719 Z M 7.011719 4.917969 L 8.628906 4.917969 L 8.628906 3.386719 L 7.011719 3.386719 Z M 7.191406 2.375 L 7.191406 0.847656 C 7.191406 0.753906 7.105469 0.675781 7.011719 0.675781 L 6.652344 0.675781 C 6.554688 0.675781 6.472656 0.753906 6.472656 0.847656 L 6.472656 2.375 C 6.472656 2.460938 6.554688 2.542969 6.652344 2.542969 L 7.011719 2.542969 C 7.105469 2.542969 7.191406 2.460938 7.191406 2.375 Z M 9.347656 2.03125 L 9.347656 8.8125 C 9.347656 9.183594 9.023438 9.488281 8.628906 9.488281 L 0.722656 9.488281 C 0.328125 9.488281 0 9.183594 0 8.8125 L 0 2.03125 C 0 1.664062 0.328125 1.355469 0.722656 1.355469 L 1.4375 1.355469 L 1.4375 0.847656 C 1.4375 0.378906 1.839844 0 2.335938 0 L 2.695312 0 C 3.1875 0 3.59375 0.378906 3.59375 0.847656 L 3.59375 1.355469 L 5.753906 1.355469 L 5.753906 0.847656 C 5.753906 0.378906 6.160156 0 6.652344 0 L 7.011719 0 C 7.507812 0 7.910156 0.378906 7.910156 0.847656 L 7.910156 1.355469 L 8.628906 1.355469 C 9.023438 1.355469 9.347656 1.664062 9.347656 2.03125 Z M 9.347656 2.03125 "/>
</g>
</svg>
