<?xml version="1.0" encoding="UTF-8"?>
<svg xmlns="http://www.w3.org/2000/svg" xmlns:xlink="http://www.w3.org/1999/xlink" width="9pt" height="10pt" viewBox="0 0 9 10" version="1.1">
<g id="surface1">
<path style=" stroke:none;fill-rule:nonzero;fill:rgb(0%,0%,0%);fill-opacity:1;" d="M 6.300781 5.9375 C 5.722656 5.9375 5.445312 6.25 4.5 6.25 C 3.554688 6.25 3.277344 5.9375 2.699219 5.9375 C 1.210938 5.9375 0 7.113281 0 8.5625 L 0 9.0625 C 0 9.578125 0.433594 10 0.964844 10 L 8.035156 10 C 8.566406 10 9 9.578125 9 9.0625 L 9 8.5625 C 9 7.113281 7.789062 5.9375 6.300781 5.9375 Z M 8.035156 9.0625 L 0.964844 9.0625 L 0.964844 8.5625 C 0.964844 7.632812 1.742188 6.875 2.699219 6.875 C 2.992188 6.875 3.46875 7.1875 4.5 7.1875 C 5.539062 7.1875 6.003906 6.875 6.300781 6.875 C 7.257812 6.875 8.035156 7.632812 8.035156 8.5625 Z M 4.5 5.625 C 6.097656 5.625 7.394531 4.367188 7.394531 2.8125 C 7.394531 1.257812 6.097656 0 4.5 0 C 2.902344 0 1.605469 1.257812 1.605469 2.8125 C 1.605469 4.367188 2.902344 5.625 4.5 5.625 Z M 4.5 0.9375 C 5.5625 0.9375 6.429688 1.78125 6.429688 2.8125 C 6.429688 3.84375 5.5625 4.6875 4.5 4.6875 C 3.4375 4.6875 2.570312 3.84375 2.570312 2.8125 C 2.570312 1.78125 3.4375 0.9375 4.5 0.9375 Z M 4.5 0.9375 "/>
</g>
</svg>
